# xmcd
#
# Track frame offsets:
#	150
#	22792
#	43465
#	60907
#	84499
#	104208
#	125567
#	148610
#	168258
#	187904
#	205101
#	236590
#	258191
#	276141
#
# Disc length: 4059 seconds
#
# Revision: 8
# Processed by: cddbd v1.5.1PL2 Copyright (c) Steve Scherf et al.
# Submitted via: EasyCDDAExtractor 8.2.1.1
#
DISCID=bf0fd90e
DTITLE=Mariah Carey - Butterfly
DYEAR=1997
DGENRE=Blues
TTITLE0=Honey
TTITLE1=Butterfly
TTITLE2=My All
TTITLE3=The Roof
TTITLE4=Fourth Of July
TTITLE5=Breakdown
TTITLE6=Babydoll
TTITLE7=Close My Eyes
TTITLE8=Whenever You Call
TTITLE9=Fly Away (Butterfly Reprise)
TTITLE10=The Beautiful Ones
TTITLE11=Outside
TTITLE12=Honey (So So Def Radio Mix Featuring Da Brat and Jd)
TTITLE13=Honey (Def Club Mix)
EXTD=Trading full mp3 albums\nmagus3042@yahoo.com
EXTT0=
EXTT1=
EXTT2=
EXTT3=
EXTT4=
EXTT5=
EXTT6=
EXTT7=
EXTT8=
EXTT9=
EXTT10=
EXTT11=
EXTT12=Featuring Da Brat and JD
EXTT13=
PLAYORDER=
